  0%|          | 0/11 [00:00<?, ?it/s]Traceback (most recent call last):
  File "get_spectrogram.py", line 52, in <module>
    fire.Fire({'run': e.iter_get_spectrogram})
  File "/usr/local/lib/python2.7/dist-packages/fire/core.py", line 127, in Fire
    component_trace = _Fire(component, args, context, name)
  File "/usr/local/lib/python2.7/dist-packages/fire/core.py", line 366, in _Fire
    component, remaining_args)
  File "/usr/local/lib/python2.7/dist-packages/fire/core.py", line 542, in _CallCallable
    result = fn(*varargs, **kwargs)
  File "get_spectrogram.py", line 47, in iter_get_spectrogram
    spec = self.get_spectrogram(fn)
  File "get_spectrogram.py", line 24, in get_spectrogram
    X = self.ap.mel(self.ap.forward(self.ap.load(fn)), logamp=True)
  File "preprocessing/audio.py", line 26, in load
    return librosa.load(fn, sr=self.sr, mono=self.mono)[0]
  File "/usr/local/lib/python2.7/dist-packages/librosa/core/audio.py", line 126, in load
    for frame in input_file:
  File "/usr/local/lib/python2.7/dist-packages/audioread/ffdec.py", line 181, in read_data
    ''.join(self.stderr_reader.queue.queue)
audioread.ffdec.ReadTimeoutError: ffmpeg output: Output #0, s16le, to 'pipe:':
  Metadata:
    encoder         : Lavf56.40.101
    Stream #0:0: Audio: pcm_s16le, 48000 Hz, stereo, s16, 1536 kb/s
    Metadata:
      encoder         : Lavc56.60.100 pcm_s16le
Stream mapping:
  Stream #0:0 -> #0:0 (mp3 (native) -> pcm_s16le (native))
Press [q] to stop, [?] for help
size=      58kB time=00:00:00.31 bitrate=1536.0kbits/s    size=      63kB time=00:00:00.33 bitrate=1536.0kbits/s    size=     108kB time=00:00:00.57 bitrate=1536.0kbits/s    size=     112kB time=00:00:00.60 bitrate=1536.0kbits/s    size=     117kB time=00:00:00.62 bitrate=1536.0kbits/s    size=     122kB time=00:00:00.64 bitrate=1536.0kbits/s    size=     126kB time=00:00:00.67 bitrate=1536.0kbits/s    size=     130kB time=00:00:00.69 bitrate=1536.0kbits/s    size=     135kB time=00:00:00.72 bitrate=1536.0kbits/s    size=     140kB time=00:00:00.74 bitrate=1536.0kbits/s    size=     144kB time=00:00:00.76 bitrate=1536.0kbits/s    size=     148kB time=00:00:00.79 bitrate=1536.0kbits/s    s
Exception in thread Thread-1 (most likely raised during interpreter shutdown):